<?xml version="1.0" standalone="no"?>
<!DOCTYPE svg PUBLIC "-//W3C//DTD SVG 20010904//EN"
 "http://www.w3.org/TR/2001/REC-SVG-20010904/DTD/svg10.dtd">
<svg version="1.0" xmlns="http://www.w3.org/2000/svg"
 width="1632.000000pt" height="1632.000000pt" viewBox="0 0 1632.000000 1632.000000"
 preserveAspectRatio="xMidYMid meet">
<metadata>
Created by potrace 1.11, written by Peter Selinger 2001-2013
</metadata>
<g transform="translate(0.000000,1632.000000) scale(0.100000,-0.100000)"
fill="#000000" stroke="none">
<path d="M14085 12124 c-297 -40 -877 -118 -1290 -174 -412 -55 -1103 -147
-1535 -205 -432 -58 -992 -133 -1245 -166 -253 -34 -463 -64 -467 -68 -9 -8
-167 -345 -164 -349 2 -1 70 7 152 18 82 10 453 58 824 104 918 116 1857 235
2375 300 237 30 564 71 727 92 164 21 300 36 302 33 2 -2 -10 -170 -26 -374
-44 -568 -157 -2160 -153 -2164 5 -4 150 6 720 50 214 16 391 31 393 33 3 4
-12 1256 -28 2251 -5 336 -10 629 -10 653 0 34 -3 42 -17 41 -10 -1 -261 -34
-558 -75z"/>
<path d="M9110 11125 c-183 -25 -893 -116 -2225 -285 -1101 -140 -1248 -159
-1250 -162 -10 -10 -1443 -1959 -1461 -1986 -2 -2 -22 10 -46 26 l-44 30 -317
-201 c-174 -111 -316 -204 -317 -207 0 -3 33 -3 73 1 39 4 74 5 75 4 2 -2 -42
-33 -97 -69 l-101 -65 0 -281 c0 -155 3 -279 8 -276 4 2 68 88 142 190 74 102
138 186 143 186 4 0 6 -100 5 -222 l-3 -223 -145 0 c-143 0 -144 0 -150 23 -4
20 -32 -13 -180 -215 l-175 -240 -3 79 -3 78 -269 0 -270 0 0 -452 0 -451 78
105 c42 58 160 221 262 361 102 141 188 256 193 256 9 1 8 -269 -2 -412 -8
-119 -19 -143 -84 -186 -28 -18 -37 -31 -37 -52 0 -23 13 -36 85 -83 75 -50
180 -153 287 -280 l25 -29 314 262 c173 144 318 269 324 277 7 10 3 21 -15 39
l-26 25 -67 -56 -67 -56 0 371 0 371 105 128 104 127 -104 3 -105 3 0 277 -1
277 -34 -40 -35 -40 0 147 0 147 -40 3 -39 3 35 23 c35 23 36 23 41 3 4 -16
13 -21 39 -21 l33 0 3 -106 3 -105 75 102 c41 57 77 107 79 113 2 6 -28 7 -78
3 l-81 -6 0 47 c1 46 2 48 54 80 30 17 57 32 61 32 4 0 30 -17 57 -37 49 -35
51 -36 65 -17 8 10 46 63 85 117 39 53 75 97 79 97 5 0 81 -54 170 -120 89
-66 164 -120 168 -120 3 0 42 36 86 80 44 44 82 80 85 80 4 0 17 -14 29 -31
l23 -31 -29 -31 c-67 -73 -67 -71 17 -64 81 7 2457 205 3135 261 226 19 412
33 413 31 2 -2 -1 -12 -6 -21 -8 -14 -20 -18 -57 -15 l-47 3 7 -64 c11 -96 18
-100 50 -30 29 65 40 74 50 43 10 -34 73 -80 133 -98 74 -23 331 -23 1015 1
391 14 520 15 602 6 398 -42 653 -242 774 -605 72 -216 99 -469 116 -1080 3
-110 8 -245 11 -301 l5 -101 -173 -115 c-95 -63 -211 -146 -258 -183 -47 -37
-90 -69 -96 -72 -6 -2 -85 14 -175 36 -300 74 -568 111 -811 111 -356 0 -619
-64 -949 -230 l-118 -59 -25 31 c-14 18 -24 33 -23 34 1 1 69 38 151 83 469
258 762 491 851 675 67 139 68 154 71 631 2 518 9 574 95 735 18 33 29 63 25
67 -32 33 -297 -169 -343 -262 -43 -86 -46 -126 -39 -530 8 -429 3 -477 -60
-613 -67 -147 -154 -243 -365 -408 -122 -95 -420 -303 -434 -304 -5 0 -20 15
-31 33 l-22 33 97 72 c268 199 364 334 365 517 1 63 -4 90 -22 130 -57 124
-179 192 -279 154 -15 -5 -53 -35 -83 -65 l-56 -54 -28 29 -27 29 31 62 c40
79 114 154 186 187 75 34 200 42 297 19 38 -9 70 -16 72 -16 1 0 5 84 8 188 5
207 15 260 73 377 57 118 197 254 384 374 l65 42 -65 -5 c-36 -3 -177 -9 -315
-12 -226 -5 -259 -4 -347 14 -202 42 -304 121 -348 270 -7 23 -16 42 -19 42
-6 0 -15 -20 -393 -875 -347 -784 -1118 -2579 -1118 -2602 0 -4 141 -7 312 -6
1977 16 3165 25 4608 34 943 6 1717 13 1719 15 5 5 71 1058 65 1063 -2 2 -23
-9 -46 -26 l-42 -30 -80 43 c-116 62 -264 118 -393 150 -83 20 -113 32 -113
43 0 8 18 34 41 57 68 69 69 78 69 715 l0 555 48 23 c77 37 232 145 309 216
39 36 77 65 84 65 7 0 61 -28 121 -61 60 -34 111 -59 114 -56 7 7 95 1309 89
1315 -7 7 -339 -17 -1540 -113 -104 -8 -390 -31 -635 -50 -245 -19 -499 -39
-565 -45 -66 -6 -430 -35 -810 -65 -379 -30 -773 -62 -875 -70 -102 -8 -327
-26 -500 -40 -173 -14 -327 -27 -342 -30 -16 -2 -28 -1 -28 3 0 7 95 219 390
872 120 264 411 899 610 1330 34 74 69 150 76 168 l14 32 -42 -1 c-24 -1 -122
-12 -218 -24z m3156 -3446 c131 -154 240 -283 241 -287 1 -4 -172 -129 -385
-278 l-387 -271 -3 -164 -2 -164 197 -78 c109 -43 202 -78 206 -77 4 0 67 41
140 91 l132 90 17 -22 c10 -11 18 -25 18 -29 0 -4 -126 -95 -280 -203 l-281
-197 -77 39 c-126 63 -251 109 -393 144 -154 38 -163 47 -106 106 20 20 42 50
49 66 10 23 14 169 18 628 l5 599 100 36 c55 21 195 85 310 143 116 58 217
107 226 107 9 1 113 -113 255 -279z m-8568 -758 c3 -442 7 -413 -72 -453 -75
-38 -144 -4 -186 93 -29 68 -39 200 -40 502 l0 258 148 -3 147 -3 3 -394z"/>
<path d="M11730 7360 l0 -399 225 157 c132 92 223 162 220 169 -8 24 -419 473
-432 473 -10 0 -13 -78 -13 -400z"/>
<path d="M2930 8666 c-397 -188 -639 -342 -790 -502 -165 -175 -234 -346 -247
-610 l-6 -131 -96 -11 c-177 -21 -296 -104 -367 -257 -19 -40 -34 -76 -34 -78
0 -3 14 -10 30 -16 29 -9 33 -8 65 28 20 21 59 49 87 61 68 29 160 24 233 -12
91 -47 184 -167 225 -291 6 -21 16 -37 20 -35 4 2 50 57 102 123 l93 120 3
-220 c1 -121 -2 -251 -8 -290 -20 -134 -87 -224 -211 -283 -32 -15 -58 -31
-58 -36 -1 -5 52 -7 117 -4 102 4 125 8 180 33 71 32 125 86 142 142 16 50 27
873 12 873 -5 0 -43 -43 -83 -95 -41 -52 -78 -95 -83 -95 -5 0 -6 187 -3 433
6 472 12 533 64 630 26 49 159 194 169 185 2 -3 -2 -20 -10 -39 -41 -97 -47
-178 -44 -594 l3 -400 38 52 37 51 0 283 c0 332 11 485 41 566 45 120 116 198
231 253 l46 23 49 -28 c112 -65 152 -138 160 -298 3 -57 10 -96 16 -94 5 1 46
50 91 107 l81 105 84 8 c61 6 86 5 91 -3 5 -8 10 -9 14 -2 3 5 -1 12 -9 16 -9
3 -15 18 -15 38 0 89 -48 195 -114 256 -57 52 -149 112 -173 112 -10 0 -88
-34 -173 -74z"/>
<path d="M16123 8596 c-82 -20 -173 -70 -255 -140 -42 -36 -79 -70 -83 -76 -4
-6 -34 13 -73 46 -61 52 -188 124 -219 124 -6 0 -16 -7 -21 -16 -7 -12 4 -28
45 -67 33 -31 66 -75 86 -116 l32 -66 3 -849 c3 -966 6 -922 -74 -1003 -25
-24 -44 -51 -42 -59 2 -8 34 -26 72 -39 107 -37 163 -70 270 -155 55 -44 104
-80 108 -80 5 0 85 59 178 131 l170 130 -20 30 c-12 16 -24 29 -28 29 -4 -1
-22 -14 -41 -30 -20 -17 -39 -26 -45 -22 -6 5 -50 39 -98 76 l-88 67 0 847 c0
904 1 927 50 1021 29 58 85 118 148 158 65 42 72 73 15 72 -21 0 -62 -6 -90
-13z"/>
<path d="M3968 8415 c-10 -13 -18 -26 -18 -29 0 -8 95 -8 103 0 7 7 -46 54
-59 54 -5 0 -17 -11 -26 -25z"/>
<path d="M4445 8419 c-104 -9 -229 -20 -277 -24 -49 -4 -88 -10 -88 -13 0 -4
23 -23 50 -42 l50 -35 0 -885 c0 -524 4 -921 10 -972 13 -110 42 -189 89 -241
44 -49 150 -120 169 -112 7 2 105 77 217 166 l205 160 -26 34 -25 34 -45 -35
c-25 -19 -56 -37 -70 -40 -56 -14 -113 24 -135 92 -17 51 -25 1573 -10 1703 8
63 20 104 45 156 19 38 34 70 33 71 -1 0 -87 -7 -192 -17z"/>
<path d="M9787 8213 c-4 -3 -7 -156 -7 -339 l0 -332 48 -30 c130 -84 265 -116
394 -94 75 13 199 65 254 107 l31 23 -9 74 c-21 183 -83 343 -167 426 -86 86
-232 145 -390 157 -42 3 -92 8 -112 10 -20 3 -39 2 -42 -2z"/>
<path d="M9557 8168 c-37 -64 -75 -167 -93 -250 -13 -62 -15 -142 -12 -523 3
-420 2 -454 -16 -505 -38 -111 -101 -215 -184 -302 -20 -21 -33 -41 -29 -44 4
-4 46 -1 94 6 49 7 153 16 233 19 l145 6 3 818 2 817 -59 0 c-59 0 -59 0 -84
-42z"/>
<path d="M2855 7839 c-99 -127 -181 -235 -183 -240 -2 -5 79 -9 182 -9 l186 0
0 240 c0 132 -1 240 -3 240 -1 0 -83 -104 -182 -231z"/>
<path d="M14450 7929 c-88 -80 -197 -119 -332 -119 -133 0 -133 3 -3 -272
l105 -222 -28 -36 c-245 -306 -318 -451 -329 -655 -5 -89 -3 -108 19 -171 14
-38 44 -99 68 -135 41 -61 191 -219 207 -219 5 0 125 92 267 205 143 112 263
202 268 199 4 -3 8 -22 8 -42 0 -48 21 -126 49 -181 22 -42 155 -181 174 -181
5 0 88 68 185 152 98 83 181 155 185 158 5 4 -2 19 -15 34 l-23 27 -36 -30
c-50 -41 -79 -47 -112 -21 -50 40 -52 62 -52 635 0 603 -5 561 90 727 26 44
43 84 38 88 -13 13 -63 23 -63 13 0 -5 -13 -23 -29 -41 -27 -28 -36 -32 -83
-32 -96 0 -281 53 -425 121 -45 22 -83 39 -85 39 -2 -1 -23 -19 -48 -41z m-11
-293 c134 -41 245 -77 247 -79 3 -2 3 -103 2 -225 l-3 -221 -190 89 -190 89
-102 217 c-57 120 -103 221 -103 225 0 4 21 2 48 -6 26 -8 157 -48 291 -89z
m44 -502 l207 -97 0 -218 0 -217 -131 -106 c-150 -122 -136 -120 -233 -22 -66
68 -115 149 -140 235 -20 69 -21 215 -1 299 17 72 73 222 83 222 4 0 100 -43
215 -96z"/>
<path d="M5225 7820 c-216 -189 -200 -172 -177 -200 l18 -23 44 32 c24 17 55
31 71 31 37 0 76 -48 84 -103 3 -23 5 -262 3 -532 -3 -547 1 -514 -77 -590
-55 -53 -53 -69 12 -90 110 -36 216 -100 364 -222 l40 -32 221 177 c122 97
222 182 222 188 0 20 -39 48 -52 37 -7 -5 -45 -35 -84 -66 -39 -32 -75 -57
-79 -57 -4 0 -50 30 -101 67 l-94 67 0 517 0 518 81 73 c44 40 84 73 89 73 5
0 54 -58 110 -130 56 -71 105 -131 109 -133 9 -3 261 217 261 228 0 9 -248
304 -259 308 -5 2 -96 -73 -202 -166 l-194 -169 -10 51 c-12 58 -26 85 -69
140 -30 37 -155 147 -166 145 -3 0 -77 -63 -165 -139z"/>
<path d="M13487 7768 c-4 -35 -9 -116 -13 -180 -4 -65 -10 -118 -15 -118 -4 0
-66 34 -138 75 -71 41 -135 75 -141 75 -7 0 -10 -177 -10 -553 l0 -554 103
-46 c56 -26 107 -47 112 -47 7 0 23 182 44 508 18 279 34 513 37 520 3 10 9 9
27 -3 23 -15 24 -13 115 121 51 75 90 139 87 144 -3 4 -31 23 -63 40 -31 18
-75 43 -98 56 l-41 24 -6 -62z"/>
<path d="M9790 7205 c0 -129 2 -235 4 -235 3 0 35 16 73 35 138 70 311 93 451
60 34 -8 99 -31 142 -51 44 -21 82 -35 84 -33 5 5 -22 451 -28 456 -1 2 -39
-15 -82 -37 -103 -51 -178 -70 -284 -70 -105 0 -179 18 -281 70 l-79 40 0
-235z"/>
<path d="M10037 6984 c-59 -14 -177 -69 -229 -105 l-28 -20 0 -144 c0 -142 0
-145 23 -149 12 -2 87 -12 167 -21 147 -17 268 -41 464 -94 61 -16 114 -28
118 -25 4 3 8 101 8 219 l0 213 -47 30 c-161 103 -318 135 -476 96z"/>
<path d="M1818 6508 c-120 -155 -217 -282 -215 -283 1 -1 49 4 106 12 146 20
205 44 268 109 63 64 86 130 87 249 1 87 -11 195 -22 194 -4 0 -105 -127 -224
-281z"/>
<path d="M6535 6490 l-130 -130 133 -133 132 -132 132 132 133 133 -130 130
c-71 71 -132 130 -135 130 -3 0 -64 -59 -135 -130z"/>
<path d="M13606 6419 c-44 -32 -84 -59 -90 -59 -6 0 -35 11 -64 25 -38 17 -54
21 -57 12 -6 -22 -16 -227 -10 -227 3 0 80 54 170 121 154 113 164 123 159
148 -8 32 -13 41 -22 40 -4 0 -43 -27 -86 -60z"/>
<path d="M2331 6174 c-84 -113 -150 -209 -147 -212 9 -9 112 65 160 115 55 57
108 155 130 238 8 32 14 61 12 63 -2 1 -72 -90 -155 -204z"/>
<path d="M1524 6199 c-73 -28 -128 -79 -163 -152 -30 -63 -53 -176 -33 -163
10 6 238 295 255 324 11 16 2 15 -59 -9z"/>
<path d="M1493 5925 c-40 -17 -70 -65 -79 -123 -6 -41 -8 -43 -38 -40 -28 3
-32 8 -42 48 -6 25 -13 45 -17 45 -3 0 -56 -65 -118 -145 -63 -80 -353 -453
-647 -828 -293 -376 -531 -687 -527 -690 3 -3 567 -11 1253 -18 2450 -25 4174
-43 4587 -50 l420 -6 187 453 c103 249 185 455 183 458 -5 4 -1793 -9 -3795
-30 -564 -5 -1107 -9 -1207 -7 l-182 3 344 473 c189 259 341 472 337 472 -4
-1 -34 -7 -67 -15 -76 -19 -222 -18 -350 0 -125 18 -201 18 -242 0z"/>
</g>
</svg>
